<?xml version="1.0" encoding="utf-8"?>
<!-- Generator: Adobe Illustrator 24.0.0, SVG Export Plug-In . SVG Version: 6.00 Build 0)  -->
<svg version="1.1"
	 id="图层_1" xmlns:cc="http://creativecommons.org/ns#" xmlns:dc="http://purl.org/dc/elements/1.1/" xmlns:rdf="http://www.w3.org/1999/02/22-rdf-syntax-ns#"
	 xmlns="http://www.w3.org/2000/svg" xmlns:xlink="http://www.w3.org/1999/xlink" x="0px" y="0px" viewBox="0 0 350.3 106.7"
	 style="enable-background:new 0 0 350.3 106.7;" xml:space="preserve">
<style type="text/css">
	.st0{fill:#1E8CCF;}
	.st1{font-family:'MicrosoftYaHei-Bold';}
	.st2{font-size:55px;}
</style>
<text transform="matrix(1 0 0 1 147.9249 72.8121)" class="st0 st1 st2">赛 宁 云</text>
<g>
	<g>
		<path class="st0" d="M74.8,15.3c2,1.5,3.8,3.3,5.2,5.4c0.1,0.2,0.4,0.3,0.6,0.2c3.1-0.9,6.3-1.3,9.6-1.3c0.1,0,0.1,0,0.2,0
			c0.4,0,0.7-0.4,0.5-0.8C85.2,7.6,73.6,0,60.2,0c-15.5-0.1-28.6,10.1-33,24.1c-0.1,0.4-0.5,0.7-0.9,0.7C11.5,26.7,0,39.4,0,54.6
			c0,16.6,13.4,30.1,30.1,30.1h3.5c0.3,0,0.6-0.2,0.6-0.6v-9.3c0-0.3-0.2-0.6-0.6-0.6h-3.2c-10.8,0-19.9-8.6-20.1-19.5
			c-0.1-10,7.3-18.5,17.1-19.7c4.4-0.6,8.1-3.6,9.4-7.8C40,17.1,49.4,10.3,60,10.3C65.5,10.4,70.5,12.1,74.8,15.3z"/>
		<path class="st0" d="M120.2,54.7c0-0.7,0-1.4-0.1-2.2C119,37.8,107.2,26,92.6,24.8C75,23.4,60.3,37.3,60.2,54.6v0.1l0.1,39.8
			c0,0.3-0.2,0.6-0.6,0.6h-3.8c-0.9,0-1.4,1.1-0.7,1.8l9.6,9.6c0.4,0.4,1,0.4,1.5,0l9.6-9.6c0.7-0.6,0.2-1.8-0.7-1.8h-3.8
			c-0.3,0-0.6-0.2-0.6-0.6v-9.8h19.6v0.1c10.9,0,20.4-5.8,25.7-14.4c0.1-0.2,0.2-0.4,0.3-0.6c0.1-0.2,0.3-0.4,0.4-0.7
			C118.9,64.8,120.3,59.9,120.2,54.7L120.2,54.7z M109,60.5c-2.5,8-10,13.8-18.8,13.8h-19c-0.3,0-0.6-0.2-0.6-0.6l-0.1-19.1l0,0
			c0.1-10.7,8.8-19.5,19.6-19.5s19.6,8.8,19.6,19.6C109.8,56.8,109.5,58.7,109,60.5z"/>
	</g>
	<path class="st0" d="M39.9,74.3h9.3c0.3,0,0.6,0.2,0.6,0.6v9.3c0,0.3-0.2,0.6-0.6,0.6h-9.3c-0.3,0-0.6-0.2-0.6-0.6v-9.3
		C39.3,74.5,39.6,74.3,39.9,74.3z"/>
</g>
</svg>
