<?xml version="1.0" encoding="utf-8"?>
<!-- Generator: Adobe Illustrator 24.0.0, SVG Export Plug-In . SVG Version: 6.00 Build 0)  -->
<svg version="1.1" id="图层_1" xmlns="http://www.w3.org/2000/svg" xmlns:xlink="http://www.w3.org/1999/xlink" x="0px" y="0px"
	 viewBox="0 0 216.6 283.1" style="enable-background:new 0 0 216.6 283.1;" xml:space="preserve">
<style type="text/css">
	.st0{fill:#1E8CCF;}
	.st1{font-family:'MicrosoftYaHei-Bold';}
	.st2{font-size:55px;}
</style>
<g>
	<g>
		<text transform="matrix(1 0 0 1 11.5737 261.0849)" class="st0 st1 st2">赛 宁 云</text>
		<g>
			<g>
				<path class="st0" d="M134.4,28.8c3.6,2.8,6.8,6,9.4,9.7c0.2,0.3,0.7,0.5,1.1,0.4c5.5-1.6,11.3-2.4,17.3-2.4c0.1,0,0.3,0,0.4,0
					c0.7,0,1.2-0.8,0.9-1.4C153.2,15,132.2,1.3,108.1,1.3C80.3,1.2,56.8,19.4,48.7,44.6c-0.2,0.7-0.8,1.2-1.6,1.3
					C20.5,49.3,0,72,0,99.5c0,29.9,24.2,54,54,54h6.4c0.6,0,1-0.4,1-1v-16.7c0-0.6-0.4-1-1-1h-5.7c-19.5,0-35.8-15.5-36-35
					c-0.2-17.9,13.1-33.2,30.8-35.5c7.8-1,14.6-6.5,17-14.1c5.8-18.2,22.6-30.3,41.6-30.3C117.7,20,126.8,23.1,134.4,28.8z"/>
				<path class="st0" d="M216.1,99.3c0-1.3,0-2.3-0.1-3.6c-1.9-26.4-23.1-47.7-49.5-49.8c-31.6-2.5-58.2,22.5-58.3,53.6v0.2
					l0.1,71.5c0,0.6-0.4,1-1,1h-6.8c-1.7,0-2.5,2-1.3,3.2l17.2,17.2c0.7,0.7,1.9,0.7,2.6,0l17.2-17.2c1.2-1.1,0.4-3.2-1.3-3.2h-6.8
					c-0.6,0-1-0.4-1-1v-17.7h35.1v0.1c19.5,0,36.6-10.4,46.1-26c0.2-0.3,0.4-0.7,0.6-1c0.2-0.4,0.5-0.8,0.7-1.2
					c4.2-7.7,6.4-16.5,6.5-25.9L216.1,99.3L216.1,99.3z M195.9,110.1c-4.6,14.3-18,24.7-33.7,24.7H128c-0.6,0-1-0.4-1-1l-0.1-34.3
					v-0.1c0.1-19.3,15.9-35.1,35.3-35.1s35.3,15.8,35.3,35.3C197.4,103.3,196.9,106.8,195.9,110.1z"/>
			</g>
			<path class="st0" d="M71.7,134.9h16.7c0.6,0,1,0.4,1,1v16.7c0,0.6-0.4,1-1,1H71.7c-0.6,0-1-0.4-1-1v-16.7
				C70.7,135.3,71.1,134.9,71.7,134.9z"/>
		</g>
	</g>
</g>
</svg>
